<?xml version="1.0" encoding="UTF-8" standalone="no"?>
<svg
   xmlns:dc="http://purl.org/dc/elements/1.1/"
   xmlns:cc="http://creativecommons.org/ns#"
   xmlns:rdf="http://www.w3.org/1999/02/22-rdf-syntax-ns#"
   xmlns:svg="http://www.w3.org/2000/svg"
   xmlns="http://www.w3.org/2000/svg"
   xmlns:sodipodi="http://sodipodi.sourceforge.net/DTD/sodipodi-0.dtd"
   xmlns:inkscape="http://www.inkscape.org/namespaces/inkscape"
   width="1.5in"
   height="1.51in"
   viewBox="0 0 450 453"
   id="svg2"
   sodipodi:version="0.32"
   inkscape:version="0.92.0 r15299"
   sodipodi:docname="logo.svg"
   version="1.1">
  <metadata
     id="metadata9">
    <rdf:RDF>
      <cc:Work
         rdf:about="">
        <dc:format>image/svg+xml</dc:format>
        <dc:type
           rdf:resource="http://purl.org/dc/dcmitype/StillImage" />
        <dc:title></dc:title>
      </cc:Work>
    </rdf:RDF>
  </metadata>
  <defs
     id="defs7" />
  <sodipodi:namedview
     inkscape:window-height="706"
     inkscape:window-width="1366"
     inkscape:pageshadow="2"
     inkscape:pageopacity="0.0"
     borderopacity="1.0"
     bordercolor="#666666"
     pagecolor="#ffffff"
     id="base"
     inkscape:zoom="2.759382"
     inkscape:cx="169.39044"
     inkscape:cy="67.949997"
     inkscape:window-x="-8"
     inkscape:window-y="-8"
     inkscape:current-layer="svg2"
     showgrid="false"
     inkscape:window-maximized="1" />
  <g
     id="g3698">
    <g
       transform="matrix(0.78356667,0,0,0.79308845,130.94585,75.011198)"
       id="g3063">
      <path
         inkscape:connector-curvature="0"
         style="fill:#ffffff;fill-opacity:1;stroke:none"
         d="m 347.924,132.46479 c 0,123.87249 -100.79999,224.40669 -225,224.40669 -124.200005,0 -225.00001,-100.5342 -225.00001,-224.40669 0,-123.8724617 100.800005,-224.406656 225.00001,-224.406656 124.20001,0 225,100.5341943 225,224.406656 z"
         id="path2185" />
      <path
         inkscape:connector-curvature="0"
         id="selection_to_path#1"
         d="m -74.076,241.05732 c 5,-4 9,-13 12,-19 0,0 20,-35 20,-35 3,-4 12,-18 12,-22 0,-2 -1,-8 -1,-11 0,0 -2,-22 -2,-22 0,0 1,-10 1,-10 2,-22 6,-42 17,-62 14,-25 34,-46 58,-61 7,-4 13,-7 20,-10 3,-2 9,-4 12,-6 2,-2 12,-19 14,-24 0,0 29,-51 29,-51 -76,0 -148,43 -188,108 -17,29 -28,62 -31,96 0,0 0,10 0,10 0,0 -1,9 -1,9 0,0 1,11 1,11 0,0 0,10 0,10 2,18 6,37 12,54 0,0 15,35 15,35 z m 198,-333 c 0,0 25,50 25,50 2,4 10,20 12,22 2,2 9,4 12,5 6,2 14,5 20,8 27,15 46,32 62,58 12,19 21,44 23,66 0,0 0,8 0,8 0,0 1,7 1,7 0,0 -1,8 -1,8 0,0 0,9 0,9 -1,7 -3,17 -5,24 0,0 -5,15 -5,15 -1,8 11,20 11,29 0,0 -7,30 -7,30 0,0 -8,34 -8,34 0,0 -8,32 -8,32 21,-13 45,-41 58,-63 19,-30 29,-63 33,-98 0,0 0,-10 0,-10 0,0 1,-8 1,-8 0,0 -1,-18 -1,-18 0,-15 -6,-38 -10,-52 -20,-62 -68,-116 -129,-140 -29,-11 -53,-16 -84,-16 z m -194,339 c 13,24 36,49 58,65 7,5 22,16 30,18 0,0 -1,-9 -1,-9 0,0 -3,-46 -3,-46 0,-6 -1,-28 -3,-33 -1,-4 -10,-14 -13,-18 -2,-2 -4,-6 -6,-6 -3,-1 -14,5 -17,7 0,0 -45,22 -45,22 z m 289,7 c -24,19 -53,31 -84,33 0,0 -10,1 -10,1 -5,0 -14,-1 -18,-1 -3,1 -13,8 -17,10 0,0 -33,20 -33,20 -7,4 -25,14 -29,19 20,8 30,12 52,17 37,7 74,4 110,-6 14,-4 34,-13 46,-21 3,-1 13,-7 14,-9 2,-4 -4,-13 -6,-16 0,0 -15,-29 -15,-29 -3,-6 -6,-14 -10,-18 z"
         style="fill:#000000;fill-opacity:1;stroke:none;stroke-width:1" />
      <path
         inkscape:connector-curvature="0"
         id="selection_to_path"
         d="m 119.924,-81.94268 c 0,0 -181,317 -181,317 0,0 166,-81 166,-81 0,0 -64,117 -64,117 0,0 -21,-15 -21,-15 0,0 4,72 4,72 7,-1 66,-38 66,-38 0,0 -26,-7 -26,-7 0,0 46,-85 46,-85 0,0 53,39 53,39 0,0 41,-30 41,-30 0,0 47,93 47,93 3,-5 22,-82 21,-85 0,-3 -80,-159 -80,-159 0,0 -31,63 -31,63 -1,4 28,58 27,60 0,3 -25,22 -28,22 -2,0 -35,-24 -35,-28 0,-2 57,-112 59,-118 0,0 -155,76 -155,76 0,0 73,-129 73,-129 0,0 2,0 2,0 0,0 32,68 32,68 0,0 50,-24 50,-24 -2,-8 -61,-123 -66,-128 z"
         sodipodi:nodetypes="ccccccccccccccccssccccccc"
         style="fill:#000000;fill-opacity:1;stroke:none;stroke-width:1" />
    </g>
    <text
       transform="scale(0.91286485,1.0954524)"
       id="text3690"
       y="383.01932"
       x="-2.5783026"
       style="font-style:normal;font-weight:normal;font-size:86.09420013px;line-height:53.80887222px;font-family:sans-serif;letter-spacing:0px;word-spacing:0px;fill:#000000;fill-opacity:1;stroke:none;stroke-width:2.15235472"
       xml:space="preserve"><tspan
         style="font-style:normal;font-variant:normal;font-weight:normal;font-stretch:normal;font-family:'Vladimir Script';-inkscape-font-specification:'Vladimir Script';stroke-width:2.15235472"
         y="383.01932"
         x="-2.5783026"
         id="tspan3688"
         sodipodi:role="line">Cristian Serrano</tspan></text>
  </g>
</svg>
